<mxfile host="www.draw.io" modified="2020-01-04T10:23:43.811Z" agent="Mozilla/5.0 (Windows NT 10.0; Win64; x64) AppleWebKit/537.36 (KHTML, like Gecko) Chrome/79.0.3945.88 Safari/537.36" etag="9pGgd_roENnV_dXtKak4" version="12.4.8" type="github">
  <diagram id="LgURNBMT2rL62pAOXEe4" name="第 1 页">
    <mxGraphModel dx="1024" dy="534" grid="1" gridSize="10" guides="1" tooltips="1" connect="1" arrows="1" fold="1" page="1" pageScale="1" pageWidth="827" pageHeight="1169" math="0" shadow="0">
      <root>
        <mxCell id="0"/>
        <mxCell id="1" parent="0"/>
        <mxCell id="EsLoNDtV3GHsdqeKTGz8-4" value="" style="rounded=0;whiteSpace=wrap;html=1;fillColor=#f5f5f5;strokeColor=#666666;fontColor=#333333;" vertex="1" parent="1">
          <mxGeometry x="220" y="100" width="350" height="190" as="geometry"/>
        </mxCell>
        <mxCell id="EsLoNDtV3GHsdqeKTGz8-5" value="" style="rounded=1;whiteSpace=wrap;html=1;fillColor=#dae8fc;strokeColor=#6c8ebf;" vertex="1" parent="1">
          <mxGeometry x="230" y="140" width="260" height="130" as="geometry"/>
        </mxCell>
        <mxCell id="EsLoNDtV3GHsdqeKTGz8-6" value="&lt;font style=&quot;font-size: 14px&quot;&gt;&lt;b&gt;Connector&lt;/b&gt;&lt;/font&gt;" style="text;html=1;strokeColor=none;fillColor=none;align=center;verticalAlign=middle;whiteSpace=wrap;rounded=0;" vertex="1" parent="1">
          <mxGeometry x="240" y="110" width="40" height="20" as="geometry"/>
        </mxCell>
        <mxCell id="EsLoNDtV3GHsdqeKTGz8-7" value="Procotol Handler" style="text;html=1;strokeColor=none;fillColor=none;align=center;verticalAlign=middle;whiteSpace=wrap;rounded=0;" vertex="1" parent="1">
          <mxGeometry x="240" y="160" width="110" height="20" as="geometry"/>
        </mxCell>
        <mxCell id="EsLoNDtV3GHsdqeKTGz8-8" value="&lt;span style=&quot;white-space: normal&quot;&gt;Acceptor&lt;/span&gt;" style="rounded=1;whiteSpace=wrap;html=1;fillColor=#d5e8d4;strokeColor=#82b366;" vertex="1" parent="1">
          <mxGeometry x="240" y="200" width="70" height="40" as="geometry"/>
        </mxCell>
        <mxCell id="EsLoNDtV3GHsdqeKTGz8-10" value="Poller" style="rounded=1;whiteSpace=wrap;html=1;fillColor=#d5e8d4;strokeColor=#82b366;" vertex="1" parent="1">
          <mxGeometry x="320" y="200" width="70" height="40" as="geometry"/>
        </mxCell>
        <mxCell id="EsLoNDtV3GHsdqeKTGz8-11" value="Executors" style="rounded=1;whiteSpace=wrap;html=1;fillColor=#d5e8d4;strokeColor=#82b366;" vertex="1" parent="1">
          <mxGeometry x="400" y="200" width="80" height="40" as="geometry"/>
        </mxCell>
        <mxCell id="EsLoNDtV3GHsdqeKTGz8-14" value="Adapter" style="rounded=1;whiteSpace=wrap;html=1;fillColor=#dae8fc;strokeColor=#6c8ebf;" vertex="1" parent="1">
          <mxGeometry x="500" y="140" width="60" height="130" as="geometry"/>
        </mxCell>
      </root>
    </mxGraphModel>
  </diagram>
</mxfile>
